<svg xmlns="http://www.w3.org/2000/svg" width="146.9" height="36.8"><g fill="#919191"><path d="M137.2 34.5c-3.5.701-6.8.101-9.8-1.799-3.101-2-5.101-4.701-6-8.201-.9-3.5-.3-6.7 1.6-9.7 1.9-3 4.601-4.9 8.101-5.7 3.5-.8 6.8-.2 10 1.8 1.5 1 2.899 2.2 4 3.8l-3.5 2.3c-.801-1.1-1.601-1.9-2.7-2.6-2.101-1.3-4.4-1.7-6.7-1.2-2.4.5-4.2 1.8-5.5 3.9-1.3 2-1.6 4.2-1 6.601.6 2.399 1.9 4.199 4 5.5 2.1 1.299 4.3 1.699 6.6 1.199 2.301-.5 4.2-1.8 5.5-3.8l3.601 2.3c-2.002 3-4.702 4.801-8.202 5.6zm-27.1-20.1c-2.101-1.3-4.4-1.7-6.7-1.2-2.4.5-4.2 1.8-5.5 3.8-.5.7-.8 1.6-1.101 2.701H114.1c-.6-2.301-2-4.001-4-5.301zm-1.6 20.1c-3.5.701-6.8.101-9.8-1.799-3.1-2-5.1-4.701-6-8.201s-.3-6.7 1.6-9.799c1.9-3 4.601-4.9 8.101-5.7s6.8-.2 9.899 1.8c2.2 1.4 3.9 3.3 5 5.6 1.101 2.4 1.5 4.801 1.2 7.4H96.9c.6 2.199 1.899 4 4 5.3 2.1 1.3 4.3 1.7 6.6 1.2 2.4-.5 4.2-1.801 5.5-3.801l3.6 2.3c-1.9 3.1-4.6 4.901-8.1 5.7zM86.8 1v8.3h4.3v4.2h-4.3v20.701h-4.3V13.5h-4.2V9.3h4.2V1zm-15 33.201v-14.5c0-1.801-.699-3.401-2-4.701-1.3-1.3-2.899-2-4.8-2-1.899 0-3.5.7-4.8 2s-2 2.9-2 4.701v14.6h-4.3v-14.6c0-2.901 1.1-5.401 3.4-7.601 2.2-2.2 4.8-3.3 7.8-3.3 2.899 0 5.5 1.1 7.699 3.3 2.2 2.2 3.4 4.7 3.4 7.601v14.5H71.8zM41.4 9.5c1.899.6 3.6 1.7 5.2 3.2 2.6 2.5 3.899 5.5 3.899 9.1 0 3.6-1.3 6.6-3.899 9.1-2.601 2.5-5.7 3.801-9.4 3.801S30.4 33.5 27.8 30.9c-2.6-2.5-3.899-5.5-3.899-9.1 0-3.5 1.3-6.6 3.899-9.1 1.5-1.5 3.301-2.6 5.2-3.2V14c-.8.4-1.5.9-2.1 1.6-1.8 1.7-2.7 3.8-2.7 6.101 0 2.399.9 4.399 2.7 6.199 1.8 1.7 3.899 2.6 6.3 2.6s4.5-.899 6.3-2.6c1.8-1.699 2.7-3.8 2.7-6.199 0-2.4-.9-4.401-2.7-6.101-.7-.7-1.399-1.2-2.2-1.6l.1-4.5z"/><path d="M35.1 6.2h4.199v13.9H35.1zM18 15c-1.3 1.3-2 2.9-2 4.701v14.5h-4.3v-14.5c0-2.901 1.1-5.401 3.4-7.601 2.199-2.2 4.8-3.3 7.8-3.3V13c-2 0-3.6.7-4.9 2zM2 9.3h4.2v24.901H2zM2 1h4.2v4.2H2z"/></g></svg>