<svg xmlns="http://www.w3.org/2000/svg" width="76.75" height="58" fill="#fff"><path d="M36.051 7.366a24.11 24.11 0 0 0-8.095 4.048c-2.417 1.847-4.475 3.941-6.179 6.285a26.225 26.225 0 0 0-3.835 7.563c-.853 2.699-1.138 5.326-.853 7.882h12.357c1.135 1.565 2.057 3.339 2.77 5.327.708 1.99 1.065 3.765 1.065 5.326a22.46 22.46 0 0 1-1.065 6.924c-.713 2.203-1.635 4.154-2.77 5.858H5.585C3.312 51.328 2.033 46.284 1.75 41.455c0-8.096 1.524-14.877 4.581-20.347 3.052-5.466 6.818-9.87 11.292-13.209 4.474-3.336 9.338-5.573 14.595-6.711l3.833 6.178zm39.574 0a24.124 24.124 0 0 0-8.096 4.048c-2.417 1.847-4.474 3.941-6.179 6.285a26.25 26.25 0 0 0-3.835 7.563c-.852 2.699-1.138 5.326-.852 7.882H69.02c1.134 1.565 2.057 3.339 2.769 5.327.709 1.99 1.066 3.765 1.066 5.326a22.43 22.43 0 0 1-1.066 6.924c-.712 2.203-1.635 4.154-2.769 5.858H45.16c-2.274-5.252-3.552-10.296-3.835-15.125 0-8.096 1.525-14.877 4.581-20.347 3.053-5.466 6.817-9.87 11.292-13.209 4.474-3.336 9.337-5.573 14.594-6.711l3.833 6.179z"/></svg>