<svg xmlns="http://www.w3.org/2000/svg" width="143.339" height="33.75"><g fill="#FFF"><path d="M134.676 33.337c-3.487.699-6.747.089-9.778-1.829-3.074-1.943-5.056-4.653-5.947-8.125-.858-3.471-.341-6.703 1.549-9.695 1.909-3.021 4.613-4.906 8.116-5.655 3.508-.765 6.813-.166 9.915 1.797a14.058 14.058 0 0 1 3.937 3.751l-3.504 2.282a9.51 9.51 0 0 0-2.664-2.547c-2.105-1.332-4.334-1.736-6.685-1.216-2.376.525-4.207 1.809-5.494 3.846-1.288 2.038-1.631 4.231-1.034 6.581.604 2.374 1.937 4.214 4 5.519 2.062 1.305 4.262 1.712 6.596 1.218 2.335-.494 4.159-1.75 5.475-3.768l3.619 2.292c-1.92 2.975-4.621 4.824-8.101 5.549zm-26.998-20.018c-2.105-1.333-4.339-1.731-6.699-1.198-2.375.526-4.201 1.8-5.478 3.823-.466.737-.826 1.619-1.082 2.645l17.204.009c-.609-2.241-1.925-4.001-3.945-5.279zm-1.629 20.016c-3.487.7-6.745.09-9.777-1.828-3.074-1.945-5.057-4.655-5.948-8.126-.855-3.467-.331-6.705 1.568-9.712 1.907-3.021 4.608-4.899 8.098-5.636 3.507-.766 6.806-.17 9.893 1.784a13.309 13.309 0 0 1 4.991 5.626c1.132 2.344 1.514 4.786 1.147 7.327l-21.505-.004c.607 2.241 1.921 3.999 3.942 5.278 2.093 1.323 4.298 1.734 6.62 1.233 2.341-.507 4.16-1.768 5.451-3.782l3.622 2.292c-1.921 2.974-4.621 4.823-8.102 5.548zM84.464 0v8.279h4.259v4.14h-4.259v20.699H80.2V12.419h-4.235v-4.14H80.2V0zM69.488 33.118v-14.5c0-1.83-.673-3.391-2.02-4.686-1.33-1.295-2.925-1.943-4.787-1.943-1.879 0-3.483.648-4.812 1.943-1.331 1.295-1.995 2.856-1.995 4.686v14.5H51.61V18.626c0-2.849 1.112-5.357 3.338-7.525 2.227-2.168 4.801-3.253 7.726-3.253 2.907 0 5.473 1.085 7.698 3.253 2.227 2.168 3.34 4.676 3.34 7.525v14.492h-4.224zM39.266 8.472c1.904.609 3.62 1.662 5.148 3.16 2.575 2.506 3.863 5.522 3.863 9.048 0 3.525-1.288 6.541-3.863 9.047-2.559 2.491-5.665 3.735-9.319 3.735-3.639 0-6.747-1.244-9.321-3.735-2.575-2.506-3.862-5.521-3.862-9.047 0-3.525 1.287-6.542 3.862-9.048 1.544-1.502 3.27-2.557 5.178-3.164v4.52a9.326 9.326 0 0 0-2.131 1.573c-1.763 1.7-2.643 3.738-2.643 6.116 0 2.379.88 4.426 2.643 6.142 1.762 1.7 3.856 2.547 6.284 2.547 2.426 0 4.529-.847 6.308-2.547 1.762-1.716 2.643-3.763 2.643-6.142 0-2.377-.881-4.416-2.643-6.116a9.355 9.355 0 0 0-2.149-1.581l.002-4.508z"/><path d="M33 5.175h4.223v13.799H33zM15.944 13.94c-1.329 1.295-1.993 2.857-1.993 4.686v14.492H9.686V18.626c0-2.849 1.114-5.357 3.339-7.525 2.227-2.168 4.803-3.253 7.725-3.253v4.151c-1.876 0-3.479.648-4.806 1.941zM0 8.279h4.222v24.839H0zM0 0h4.222v4.139H0z"/></g></svg>