<svg version="1.1" id="Capa_1" xmlns="http://www.w3.org/2000/svg" x="0" y="0" width="146.9" height="36.8" xml:space="preserve"><style>.st0{fill:#fff}</style><path class="st0" d="M137.2 34.5c-3.5.7-6.8.1-9.8-1.8-3.1-2-5.1-4.7-6-8.2-.9-3.5-.3-6.7 1.6-9.7 1.9-3 4.6-4.9 8.1-5.7 3.5-.8 6.8-.2 10 1.8 1.5 1 2.9 2.2 4 3.8l-3.5 2.3c-.8-1.1-1.6-1.9-2.7-2.6-2.1-1.3-4.4-1.7-6.7-1.2-2.4.5-4.2 1.8-5.5 3.9-1.3 2-1.6 4.2-1 6.6.6 2.4 1.9 4.2 4 5.5 2.1 1.3 4.3 1.7 6.6 1.2s4.2-1.8 5.5-3.8l3.6 2.3c-2 3-4.7 4.8-8.2 5.6zm-27.1-20.1c-2.1-1.3-4.4-1.7-6.7-1.2-2.4.5-4.2 1.8-5.5 3.8-.5.7-.8 1.6-1.1 2.7h17.3c-.6-2.3-2-4-4-5.3zm-1.6 20.1c-3.5.7-6.8.1-9.8-1.8-3.1-2-5.1-4.7-6-8.2-.9-3.5-.3-6.7 1.6-9.8 1.9-3 4.6-4.9 8.1-5.7 3.5-.8 6.8-.2 9.9 1.8 2.2 1.4 3.9 3.3 5 5.6 1.1 2.4 1.5 4.8 1.2 7.4H96.9c.6 2.2 1.9 4 4 5.3 2.1 1.3 4.3 1.7 6.6 1.2 2.4-.5 4.2-1.8 5.5-3.8l3.6 2.3c-1.9 3.1-4.6 4.9-8.1 5.7zM86.8 1v8.3h4.3v4.2h-4.3v20.7h-4.3V13.5h-4.2V9.3h4.2V1zm-15 33.2V19.7c0-1.8-.7-3.4-2-4.7-1.3-1.3-2.9-2-4.8-2s-3.5.7-4.8 2c-1.3 1.3-2 2.9-2 4.7v14.6h-4.3V19.7c0-2.9 1.1-5.4 3.4-7.6 2.2-2.2 4.8-3.3 7.8-3.3 2.9 0 5.5 1.1 7.7 3.3 2.2 2.2 3.4 4.7 3.4 7.6v14.5h-4.4zM41.4 9.5c1.9.6 3.6 1.7 5.2 3.2 2.6 2.5 3.9 5.5 3.9 9.1s-1.3 6.6-3.9 9.1c-2.6 2.5-5.7 3.8-9.4 3.8s-6.8-1.2-9.4-3.8c-2.6-2.5-3.9-5.5-3.9-9.1 0-3.5 1.3-6.6 3.9-9.1 1.5-1.5 3.3-2.6 5.2-3.2V14c-.8.4-1.5.9-2.1 1.6-1.8 1.7-2.7 3.8-2.7 6.1 0 2.4.9 4.4 2.7 6.2 1.8 1.7 3.9 2.6 6.3 2.6s4.5-.9 6.3-2.6c1.8-1.7 2.7-3.8 2.7-6.2 0-2.4-.9-4.4-2.7-6.1-.7-.7-1.4-1.2-2.2-1.6l.1-4.5z"/><path class="st0" d="M35.1 6.2h4.2v13.9h-4.2zM18 15c-1.3 1.3-2 2.9-2 4.7v14.5h-4.3V19.7c0-2.9 1.1-5.4 3.4-7.6 2.2-2.2 4.8-3.3 7.8-3.3V13c-2 0-3.6.7-4.9 2zM2 9.3h4.2v24.9H2zM2 1h4.2v4.2H2z"/></svg>